<svg width="152" height="12" xmlns="http://www.w3.org/2000/svg" xmlns:xlink="http://www.w3.org/1999/xlink" xml:space="preserve" overflow="hidden"><defs><clipPath id="clip0"><rect x="564" y="354" width="152" height="12"/></clipPath></defs><g clip-path="url(#clip0)" transform="translate(-564 -354)"><path d="M640 365C636.134 365 633 362.761 633 360 633 357.239 636.134 355 640 355 643.866 355 647 357.239 647 360 647 362.761 643.866 365 640 365ZM640 363C642.761 363 645 361.657 645 360 645 358.343 642.761 357 640 357 637.239 357 635 358.343 635 360 635 361.657 637.239 363 640 363Z" fill="#FFFFFF" fill-rule="evenodd"/><path d="M3.32382 7-10 12C-8.46623 9.99599-7.69935 7.99456-7.69935 5.99572-7.69935 3.99687-8.46623 1.9983-10 0L3.34286 5 57 5 57 7 3.32382 7Z" fill="#FFFFFF" fill-rule="evenodd" transform="matrix(-1 0 0 1 621 354)"/><path d="M662.324 361 649 366C650.534 363.996 651.301 361.995 651.301 359.996 651.301 357.997 650.534 355.998 649 354L662.343 359 716 359 716 361 662.324 361Z" fill="#FFFFFF" fill-rule="evenodd"/></g></svg>